<svg width="1440" height="348" viewBox="0 0 1440 348" fill="none" xmlns="http://www.w3.org/2000/svg">
<g clip-path="url(#clip0_232_763)">
<rect width="1440" height="348" fill="white"/>
<g clip-path="url(#clip1_232_763)">
<path d="M605.492 93.248L607.476 86.816H610.084L612.052 93.248L614.276 86.816H616.98L613.076 98H611.22L608.772 90.224L606.34 98H604.484L600.58 86.816H603.284L605.492 93.248ZM626.465 86.816V89.04H620.897V91.344H625.905V93.472H620.897V95.792H626.641V98H618.401V86.816H626.465ZM638.425 95.792C639.651 95.792 640.654 95.3067 641.433 94.336L643.033 95.984C641.763 97.4133 640.265 98.128 638.537 98.128C636.819 98.128 635.401 97.584 634.281 96.496C633.171 95.408 632.617 94.0373 632.617 92.384C632.617 90.72 633.182 89.3333 634.313 88.224C635.454 87.1147 636.846 86.56 638.489 86.56C640.323 86.56 641.859 87.2587 643.097 88.656L641.545 90.416C640.755 89.4347 639.774 88.944 638.601 88.944C637.662 88.944 636.857 89.2533 636.185 89.872C635.523 90.48 635.193 91.3067 635.193 92.352C635.193 93.3867 635.507 94.2187 636.137 94.848C636.766 95.4773 637.529 95.792 638.425 95.792ZM652.086 98H649.83V96.96C649.211 97.7387 648.443 98.128 647.526 98.128C646.619 98.128 645.856 97.8667 645.238 97.344C644.619 96.8107 644.31 96.1067 644.31 95.232C644.31 94.3467 644.63 93.6853 645.27 93.248C645.91 92.8107 646.784 92.592 647.894 92.592H649.686V92.544C649.686 91.6267 649.2 91.168 648.23 91.168C647.814 91.168 647.371 91.2533 646.902 91.424C646.443 91.584 646.054 91.7867 645.734 92.032L644.662 90.48C645.792 89.6587 647.083 89.248 648.534 89.248C649.579 89.248 650.432 89.5093 651.094 90.032C651.755 90.5547 652.086 91.3813 652.086 92.512V98ZM649.67 94.72V94.304H648.166C647.206 94.304 646.726 94.6027 646.726 95.2C646.726 95.5093 646.838 95.7493 647.062 95.92C647.296 96.08 647.627 96.16 648.054 96.16C648.48 96.16 648.854 96.032 649.174 95.776C649.504 95.5093 649.67 95.1573 649.67 94.72ZM656.774 93.2V98H654.374V89.392H656.774V90.352C657.499 89.616 658.315 89.248 659.222 89.248C660.128 89.248 660.886 89.568 661.494 90.208C662.112 90.848 662.422 91.7013 662.422 92.768V98H660.022V93.136C660.022 91.8133 659.536 91.152 658.566 91.152C658.086 91.152 657.664 91.328 657.302 91.68C656.95 92.0213 656.774 92.528 656.774 93.2ZM664.692 91.104V86.816H666.596V91.104H664.692ZM671.828 91.12V94.976C671.828 95.3067 671.913 95.568 672.084 95.76C672.255 95.9413 672.457 96.032 672.692 96.032C673.14 96.032 673.519 95.8293 673.828 95.424L674.724 97.104C673.977 97.7867 673.188 98.128 672.356 98.128C671.535 98.128 670.836 97.856 670.26 97.312C669.695 96.768 669.412 96.0267 669.412 95.088V91.12H668.404V89.392H669.412V86.816H671.828V89.392H673.908V91.12H671.828ZM684.158 93.248L686.142 86.816H688.75L690.718 93.248L692.942 86.816H695.646L691.742 98H689.886L687.438 90.224L685.006 98H683.15L679.246 86.816H681.95L684.158 93.248ZM704.441 98L703.401 95.584H698.713L697.673 98H695.017L699.849 86.816H702.265L707.097 98H704.441ZM701.065 90.144L699.657 93.392H702.457L701.065 90.144ZM708.495 86.816H710.991V98H708.495V86.816ZM718.581 88.976V98H716.085V88.976H712.917V86.816H721.749V88.976H718.581ZM732.734 88.976V98H730.238V88.976H727.07V86.816H735.902V88.976H732.734ZM746.095 92.352C746.095 91.3493 745.775 90.496 745.135 89.792C744.495 89.088 743.706 88.736 742.767 88.736C741.839 88.736 741.055 89.088 740.415 89.792C739.775 90.496 739.455 91.3493 739.455 92.352C739.455 93.344 739.775 94.192 740.415 94.896C741.055 95.5893 741.839 95.936 742.767 95.936C743.706 95.936 744.495 95.5893 745.135 94.896C745.775 94.192 746.095 93.344 746.095 92.352ZM746.943 96.464C745.813 97.5627 744.421 98.112 742.767 98.112C741.114 98.112 739.722 97.5627 738.591 96.464C737.461 95.3547 736.895 93.9787 736.895 92.336C736.895 90.6933 737.461 89.3227 738.591 88.224C739.722 87.1147 741.114 86.56 742.767 86.56C744.421 86.56 745.813 87.1147 746.943 88.224C748.074 89.3227 748.639 90.6933 748.639 92.336C748.639 93.9787 748.074 95.3547 746.943 96.464ZM765.189 90.96L762.165 97.072H760.677L757.669 90.96V98H755.173V86.816H758.549L761.429 92.96L764.325 86.816H767.685V98H765.189V90.96ZM778.603 86.816V89.04H773.035V91.344H778.043V93.472H773.035V95.792H778.779V98H770.539V86.816H778.603ZM789.171 86.816V89.04H783.603V91.344H788.611V93.472H783.603V95.792H789.347V98H781.107V86.816H789.171ZM796.412 88.976V98H793.916V88.976H790.748V86.816H799.58V88.976H796.412ZM810.645 98H808.149V93.584L804.277 86.816H806.981L809.397 90.976L811.813 86.816H814.517L810.645 93.584V98ZM823.974 92.352C823.974 91.3493 823.654 90.496 823.014 89.792C822.374 89.088 821.584 88.736 820.646 88.736C819.718 88.736 818.934 89.088 818.294 89.792C817.654 90.496 817.334 91.3493 817.334 92.352C817.334 93.344 817.654 94.192 818.294 94.896C818.934 95.5893 819.718 95.936 820.646 95.936C821.584 95.936 822.374 95.5893 823.014 94.896C823.654 94.192 823.974 93.344 823.974 92.352ZM824.822 96.464C823.691 97.5627 822.299 98.112 820.646 98.112C818.992 98.112 817.6 97.5627 816.47 96.464C815.339 95.3547 814.774 93.9787 814.774 92.336C814.774 90.6933 815.339 89.3227 816.47 88.224C817.6 87.1147 818.992 86.56 820.646 86.56C822.299 86.56 823.691 87.1147 824.822 88.224C825.952 89.3227 826.518 90.6933 826.518 92.336C826.518 93.9787 825.952 95.3547 824.822 96.464ZM831.692 95.12C832.108 95.632 832.668 95.888 833.372 95.888C834.076 95.888 834.631 95.632 835.036 95.12C835.452 94.5973 835.66 93.888 835.66 92.992V86.816H838.156V93.072C838.156 94.6933 837.708 95.9413 836.812 96.816C835.916 97.68 834.77 98.112 833.372 98.112C831.975 98.112 830.823 97.6747 829.916 96.8C829.02 95.9253 828.572 94.6827 828.572 93.072V86.816H831.068V92.992C831.068 93.888 831.276 94.5973 831.692 95.12Z" fill="#252B42"/>
<path d="M589.312 181V140.458H598.36V172.938H615.644V181H589.312ZM648.634 176.476C645.116 179.801 640.978 181.464 636.222 181.464C631.505 181.464 627.6 180.014 624.506 177.114C621.413 174.175 619.866 170.251 619.866 165.34C619.866 160.429 621.432 156.524 624.564 153.624C627.735 150.724 631.466 149.274 635.758 149.274C640.05 149.274 643.685 150.569 646.662 153.16C649.678 155.751 651.186 159.308 651.186 163.832V168.472H628.45C628.721 170.173 629.61 171.565 631.118 172.648C632.626 173.731 634.328 174.272 636.222 174.272C639.277 174.272 641.79 173.247 643.762 171.198L648.634 176.476ZM642.37 162.266C642.177 160.41 641.481 158.979 640.282 157.974C639.084 156.969 637.614 156.466 635.874 156.466C634.173 156.466 632.607 156.988 631.176 158.032C629.746 159.076 628.914 160.487 628.682 162.266H642.37ZM667.702 156.06V170.038C667.702 171.237 668.011 172.184 668.63 172.88C669.249 173.537 669.983 173.866 670.834 173.866C672.458 173.866 673.831 173.131 674.952 171.662L678.2 177.752C675.493 180.227 672.632 181.464 669.616 181.464C666.639 181.464 664.106 180.478 662.018 178.506C659.969 176.534 658.944 173.847 658.944 170.444V156.06H655.29V149.796H658.944V140.458H667.702V149.796H675.242V156.06H667.702ZM683.123 148.926C681.847 148.075 681.209 146.896 681.209 145.388C681.209 143.841 681.654 142.623 682.543 141.734C683.471 140.845 684.612 140.4 685.965 140.4C687.357 140.4 688.498 140.825 689.387 141.676C690.315 142.527 690.779 143.629 690.779 144.982C690.779 146.335 690.354 147.669 689.503 148.984L685.269 155.132H680.513L683.123 148.926ZM719.443 171.314C719.443 174.369 718.302 176.824 716.021 178.68C713.778 180.536 710.917 181.464 707.437 181.464C705.117 181.464 702.7 181.058 700.187 180.246C697.673 179.395 695.411 178.158 693.401 176.534L697.229 171.082C700.477 173.595 703.937 174.852 707.611 174.852C708.732 174.852 709.621 174.639 710.279 174.214C710.936 173.75 711.265 173.151 711.265 172.416C711.265 171.681 710.801 171.005 709.873 170.386C708.983 169.767 707.669 169.187 705.929 168.646C704.227 168.105 702.913 167.641 701.985 167.254C701.095 166.867 700.071 166.307 698.911 165.572C696.552 164.103 695.373 161.937 695.373 159.076C695.373 156.176 696.533 153.817 698.853 152C701.173 150.183 704.169 149.274 707.843 149.274C711.516 149.274 715.189 150.511 718.863 152.986L715.615 158.786C712.908 156.93 710.201 156.002 707.495 156.002C704.827 156.002 703.493 156.737 703.493 158.206C703.493 159.018 703.918 159.656 704.769 160.12C705.619 160.584 707.031 161.125 709.003 161.744C710.975 162.363 712.367 162.846 713.179 163.194C714.029 163.503 715.035 164.006 716.195 164.702C718.36 166.017 719.443 168.221 719.443 171.314ZM759.816 148.288V181H750.768V148.288H739.284V140.458H771.3V148.288H759.816ZM800.033 181H791.855V177.23C789.613 180.053 786.829 181.464 783.503 181.464C780.217 181.464 777.452 180.517 775.209 178.622C772.967 176.689 771.845 174.137 771.845 170.966C771.845 167.757 773.005 165.359 775.325 163.774C777.645 162.189 780.816 161.396 784.837 161.396H791.333V161.222C791.333 157.897 789.574 156.234 786.055 156.234C784.547 156.234 782.943 156.543 781.241 157.162C779.579 157.742 778.167 158.477 777.007 159.366L773.121 153.74C777.22 150.763 781.899 149.274 787.157 149.274C790.947 149.274 794.04 150.221 796.437 152.116C798.835 154.011 800.033 157.007 800.033 161.106V181ZM791.275 169.11V167.602H785.823C782.343 167.602 780.603 168.685 780.603 170.85C780.603 171.971 781.009 172.841 781.821 173.46C782.672 174.04 783.871 174.33 785.417 174.33C786.964 174.33 788.317 173.866 789.477 172.938C790.676 171.971 791.275 170.695 791.275 169.11ZM816.865 181H808.165V137.964H816.865V181ZM834 181H825.3V137.964H834V160.062L843.686 149.738H854.648L842.758 162.382L855.112 181H844.788L836.842 169.052L834 172.01V181Z" fill="#252B42"/>
<rect x="627" y="216" width="186" height="52" rx="5" fill="#23A6F0"/>
<path d="M672.405 239.104V247H670.221V239.104H667.449V237.214H675.177V239.104H672.405ZM680.731 241.316C680.105 241.316 679.639 241.54 679.331 241.988C679.023 242.427 678.869 243.01 678.869 243.738V247H676.769V239.468H678.869V240.462C679.139 240.154 679.475 239.893 679.877 239.678C680.287 239.463 680.703 239.351 681.123 239.342L681.137 241.316H680.731ZM684.026 249.968C683.289 249.968 682.594 249.669 681.94 249.072L682.892 247.518C683.247 247.863 683.611 248.036 683.984 248.036C684.18 248.036 684.348 247.938 684.488 247.742C684.628 247.555 684.698 247.355 684.698 247.14C684.698 246.925 683.728 244.368 681.786 239.468H684.026L685.86 244.158L687.694 239.468H689.934L686.434 248.344C686.229 248.857 685.907 249.254 685.468 249.534C685.039 249.823 684.558 249.968 684.026 249.968ZM697.174 247H695.074V239.468H697.174V247ZM695.242 238.516C695.008 238.273 694.892 237.979 694.892 237.634C694.892 237.289 695.008 236.999 695.242 236.766C695.484 236.523 695.778 236.402 696.124 236.402C696.469 236.402 696.758 236.523 696.992 236.766C697.234 236.999 697.356 237.289 697.356 237.634C697.356 237.979 697.234 238.273 696.992 238.516C696.758 238.749 696.469 238.866 696.124 238.866C695.778 238.866 695.484 238.749 695.242 238.516ZM701.868 240.98V244.354C701.868 244.643 701.942 244.872 702.092 245.04C702.241 245.199 702.418 245.278 702.624 245.278C703.016 245.278 703.347 245.101 703.618 244.746L704.402 246.216C703.748 246.813 703.058 247.112 702.33 247.112C701.611 247.112 701 246.874 700.496 246.398C700.001 245.922 699.754 245.273 699.754 244.452V240.98H698.872V239.468H699.754V237.214H701.868V239.468H703.688V240.98H701.868ZM712.125 239.034V239.538H713.945V241.05H712.125V247H710.011V241.05H709.129V239.538H710.011V239.076C710.011 238.255 710.258 237.606 710.753 237.13C711.257 236.645 711.878 236.402 712.615 236.402C713.362 236.402 714.038 236.682 714.645 237.242L713.889 238.656C713.581 238.301 713.24 238.124 712.867 238.124C712.652 238.124 712.475 238.203 712.335 238.362C712.195 238.511 712.125 238.735 712.125 239.034ZM719.414 241.316C718.788 241.316 718.322 241.54 718.014 241.988C717.706 242.427 717.552 243.01 717.552 243.738V247H715.452V239.468H717.552V240.462C717.822 240.154 718.158 239.893 718.56 239.678C718.97 239.463 719.386 239.351 719.806 239.342L719.82 241.316H719.414ZM727.932 245.908C727.082 246.711 726.084 247.112 724.936 247.112C723.797 247.112 722.854 246.762 722.108 246.062C721.361 245.353 720.988 244.405 720.988 243.22C720.988 242.035 721.366 241.092 722.122 240.392C722.887 239.692 723.788 239.342 724.824 239.342C725.86 239.342 726.737 239.655 727.456 240.28C728.184 240.905 728.548 241.764 728.548 242.856V243.976H723.06C723.125 244.387 723.34 244.723 723.704 244.984C724.068 245.245 724.478 245.376 724.936 245.376C725.673 245.376 726.28 245.129 726.756 244.634L727.932 245.908ZM726.42 242.478C726.373 242.03 726.205 241.685 725.916 241.442C725.626 241.199 725.272 241.078 724.852 241.078C724.441 241.078 724.063 241.204 723.718 241.456C723.372 241.708 723.172 242.049 723.116 242.478H726.42ZM736.786 245.908C735.937 246.711 734.938 247.112 733.79 247.112C732.651 247.112 731.709 246.762 730.962 246.062C730.215 245.353 729.842 244.405 729.842 243.22C729.842 242.035 730.22 241.092 730.976 240.392C731.741 239.692 732.642 239.342 733.678 239.342C734.714 239.342 735.591 239.655 736.31 240.28C737.038 240.905 737.402 241.764 737.402 242.856V243.976H731.914C731.979 244.387 732.194 244.723 732.558 244.984C732.922 245.245 733.333 245.376 733.79 245.376C734.527 245.376 735.134 245.129 735.61 244.634L736.786 245.908ZM735.274 242.478C735.227 242.03 735.059 241.685 734.77 241.442C734.481 241.199 734.126 241.078 733.706 241.078C733.295 241.078 732.917 241.204 732.572 241.456C732.227 241.708 732.026 242.049 731.97 242.478H735.274ZM745.108 242.8V247H743.008V239.468H745.108V240.308C745.742 239.664 746.456 239.342 747.25 239.342C748.043 239.342 748.706 239.622 749.238 240.182C749.779 240.742 750.05 241.489 750.05 242.422V247H747.95V242.744C747.95 241.587 747.525 241.008 746.676 241.008C746.256 241.008 745.887 241.162 745.57 241.47C745.262 241.769 745.108 242.212 745.108 242.8ZM753.829 243.234C753.829 243.85 754.002 244.354 754.347 244.746C754.702 245.129 755.15 245.32 755.691 245.32C756.242 245.32 756.69 245.129 757.035 244.746C757.39 244.354 757.567 243.85 757.567 243.234C757.567 242.618 757.39 242.114 757.035 241.722C756.69 241.33 756.242 241.134 755.691 241.134C755.15 241.134 754.702 241.33 754.347 241.722C754.002 242.114 753.829 242.618 753.829 243.234ZM759.681 243.234C759.681 244.326 759.303 245.245 758.547 245.992C757.791 246.739 756.839 247.112 755.691 247.112C754.552 247.112 753.605 246.739 752.849 245.992C752.093 245.245 751.715 244.326 751.715 243.234C751.715 242.142 752.093 241.223 752.849 240.476C753.605 239.72 754.552 239.342 755.691 239.342C756.839 239.342 757.791 239.72 758.547 240.476C759.303 241.223 759.681 242.142 759.681 243.234ZM765.224 247H763.054L760.492 239.468H762.662L764.132 244.018L765.602 239.468H767.632L769.102 244.018L770.572 239.468H772.756L770.194 247H768.01L766.624 242.898L765.224 247Z" fill="white"/>
</g>
<path d="M719.905 62.2058C720.571 63.0869 721.826 63.2611 722.707 62.5949L737.065 51.7389C737.946 51.0727 738.12 49.8184 737.454 48.9374C736.787 48.0563 735.533 47.8821 734.652 48.5483L721.89 58.1981L712.24 45.4356C711.574 44.5545 710.319 44.3803 709.438 45.0465C708.557 45.7127 708.383 46.9669 709.049 47.848L719.905 62.2058ZM676.367 5.49559C689.131 6.34642 698.089 10.2491 704.401 15.4985C710.728 20.7599 714.535 27.4888 716.792 34.1997C719.052 40.9191 719.738 47.5647 719.853 52.5532C719.91 55.0417 719.824 57.1028 719.725 58.5345C719.675 59.2501 719.623 59.8073 719.583 60.181C719.563 60.3678 719.547 60.5086 719.535 60.6003C719.53 60.6461 719.525 60.6796 719.523 60.7005C719.521 60.7109 719.52 60.7181 719.52 60.7221C719.52 60.7242 719.519 60.7254 719.519 60.7257C719.519 60.7259 719.519 60.7256 719.519 60.7257C719.519 60.7252 719.519 60.7245 721.5 60.9996C723.481 61.2747 723.482 61.2736 723.482 61.2722C723.482 61.2715 723.482 61.27 723.482 61.2685C723.483 61.2656 723.483 61.2619 723.484 61.2574C723.485 61.2483 723.487 61.236 723.489 61.2204C723.493 61.1893 723.498 61.1453 723.505 61.0889C723.519 60.976 723.538 60.8132 723.561 60.6036C723.605 60.1846 723.662 59.5782 723.715 58.8104C723.822 57.2753 723.912 55.0903 723.851 52.4616C723.731 47.2158 723.011 40.1427 720.583 32.9246C718.153 25.6981 713.991 18.2708 706.959 12.423C699.912 6.56306 690.119 2.40343 676.633 1.50445L676.367 5.49559Z" fill="#23A6F0"/>
</g>
<defs>
<clipPath id="clip0_232_763">
<rect width="1440" height="348" fill="white"/>
</clipPath>
<clipPath id="clip1_232_763">
<rect width="272" height="188" fill="white" transform="translate(584 80)"/>
</clipPath>
</defs>
</svg>
